{
  "accessors": [
    {
      "bufferView": 2,
      "componentType": 5126,
      "count": 717,
      "max": [
        57.928234100341797,
        137.14048767089844,
        62.787841796875
      ],
      "min": [
        -120.90706634521484,
        -100.00888061523438,
        -65.075836181640625
      ],
      "type": "VEC3"
    },
    {
      "bufferView": 2,
      "byteOffset": 8604,
      "componentType": 5126,
      "count": 717,
      "max": [
        0.99996894598007202,
        1,
        1
      ],
      "min": [
        -1,
        -1,
        -1
      ],
      "type": "VEC3"
    },
    {
      "bufferView": 1,
      "componentType": 5126,
      "count": 717,
      "max": [
        0.87584364414215088,
        1
      ],
      "min": [
        0,
        0
      ],
      "type": "VEC2"
    },
    {
      "bufferView": 0,
      "componentType": 5125,
      "count": 1131,
      "max": [
        716
      ],
      "min": [
        0
      ],
      "type": "SCALAR"
    },
    {
      "bufferView": 2,
      "byteOffset": 17208,
      "componentType": 5126,
      "count": 951,
      "max": [
        101.96768951416016,
        272.26959228515625,
        100.75283050537109
      ],
      "min": [
        -120.90706634521484,
        -100.00888061523438,
        -100.75283050537109
      ],
      "type": "VEC3"
    },
    {
      "bufferView": 2,
      "byteOffset": 28620,
      "componentType": 5126,
      "count": 951,
      "max": [
        1,
        1,
        0.99999618530273438
      ],
      "min": [
        -1,
        -1,
        -0.88784646987915039
      ],
      "type": "VEC3"
    },
    {
      "bufferView": 1,
      "byteOffset": 5736,
      "componentType": 5126,
      "count": 951,
      "max": [
        0.95784610509872437,
        1.0000002384185791
      ],
      "min": [
        -8.9406967163085938e-08,
        0
      ],
      "type": "VEC2"
    },
    {
      "bufferView": 0,
      "byteOffset": 4524,
      "componentType": 5125,
      "count": 1743,
      "max": [
        950
      ],
      "min": [
        0
      ],
      "type": "SCALAR"
    },
    {
      "bufferView": 2,
      "byteOffset": 40032,
      "componentType": 5126,
      "count": 1016,
      "max": [
        102.0147705078125,
        219.29328918457031,
        107.28654479980469
      ],
      "min": [
        -93.389244079589844,
        -100.00888061523438,
        -107.28654479980469
      ],
      "type": "VEC3"
    },
    {
      "bufferView": 2,
      "byteOffset": 52224,
      "componentType": 5126,
      "count": 1016,
      "max": [
        1,
        1,
        0.9913327693939209
      ],
      "min": [
        -1,
        -0.96721279621124268,
        -0.99489277601242065
      ],
      "type": "VEC3"
    },
    {
      "bufferView": 1,
      "byteOffset": 13344,
      "componentType": 5126,
      "count": 1016,
      "max": [
        1,
        1.0000001192092896
      ],
      "min": [
        -8.9406967163085938e-08,
        0
      ],
      "type": "VEC2"
    },
    {
      "bufferView": 0,
      "byteOffset": 11496,
      "componentType": 5125,
      "count": 1680,
      "max": [
        1015
      ],
      "min": [
        0
      ],
      "type": "SCALAR"
    },
    {
      "bufferView": 2,
      "byteOffset": 64416,
      "componentType": 5126,
      "count": 194,
      "max": [
        85.027641296386719,
        334.49539184570312,
        93.109947204589844
      ],
      "min": [
        -80.635574340820312,
        245.11923217773438,
        -93.109947204589844
      ],
      "type": "VEC3"
    },
    {
      "bufferView": 2,
      "byteOffset": 66744,
      "componentType": 5126,
      "count": 194,
      "max": [
        0.72440510988235474,
        1,
        0.68647307157516479
      ],
      "min": [
        -0.78251737356185913,
        -0.82957565784454346,
        -0.70430272817611694
      ],
      "type": "VEC3"
    },
    {
      "bufferView": 1,
      "byteOffset": 21472,
      "componentType": 5126,
      "count": 194,
      "max": [
        0.36398008465766907,
        0.38161289691925049
      ],
      "min": [
        0.13601985573768616,
        0.11838702112436295
      ],
      "type": "VEC2"
    },
    {
      "bufferView": 0,
      "byteOffset": 18216,
      "componentType": 5125,
      "count": 336,
      "max": [
        193
      ],
      "min": [
        0
      ],
      "type": "SCALAR"
    },
    {
      "bufferView": 2,
      "byteOffset": 69072,
      "componentType": 5126,
      "count": 157,
      "max": [
        -41.785835266113281,
        257.45559692382812,
        32.220817565917969
      ],
      "min": [
        -65.163482666015625,
        -49.578239440917969,
        -30.799901962280273
      ],
      "type": "VEC3"
    },
    {
      "bufferView": 2,
      "byteOffset": 70956,
      "componentType": 5126,
      "count": 157,
      "max": [
        0.18764923512935638,
        1,
        1
      ],
      "min": [
        -1,
        -1,
        -1
      ],
      "type": "VEC3"
    },
    {
      "bufferView": 1,
      "byteOffset": 23024,
      "componentType": 5126,
      "count": 157,
      "max": [
        0.33333325386047363,
        1
      ],
      "min": [
        0.13601985573768616,
        0.18419349193572998
      ],
      "type": "VEC2"
    },
    {
      "bufferView": 0,
      "byteOffset": 19560,
      "componentType": 5125,
      "count": 288,
      "max": [
        156
      ],
      "min": [
        0
      ],
      "type": "SCALAR"
    },
    {
      "bufferView": 2,
      "byteOffset": 72840,
      "componentType": 5126,
      "count": 128,
      "max": [
        -35.420890808105469,
        249.93577575683594,
        21.889745712280273
      ],
      "min": [
        -57.862236022949219,
        -49.578239440917969,
        -21.889751434326172
      ],
      "type": "VEC3"
    },
    {
      "bufferView": 2,
      "byteOffset": 74376,
      "componentType": 5126,
      "count": 128,
      "max": [
        1,
        0.99979102611541748,
        1
      ],
      "min": [
        -1,
        -0.99326574802398682,
        -0.9994887113571167
      ],
      "type": "VEC3"
    },
    {
      "bufferView": 1,
      "byteOffset": 24280,
      "componentType": 5126,
      "count": 128,
      "max": [
        0.31030687689781189,
        1
      ],
      "min": [
        0,
        0
      ],
      "type": "VEC2"
    },
    {
      "bufferView": 0,
      "byteOffset": 20712,
      "componentType": 5125,
      "count": 228,
      "max": [
        127
      ],
      "min": [
        0
      ],
      "type": "SCALAR"
    },
    {
      "bufferView": 3,
      "componentType": 5126,
      "count": 239,
      "max": [
        5
      ],
      "min": [
        0
      ],
      "type": "SCALAR"
    },
    {
      "bufferView": 4,
      "componentType": 5126,
      "count": 239,
      "max": [
        8.3373644904142895e-17,
        0.99999910593032837,
        8.3373644904142895e-17,
        0.99999910593032837
      ],
      "min": [
        -8.6552883809988405e-17,
        -0.8602479100227356,
        -8.6552883809988405e-17,
        -0.48970893025398254
      ],
      "type": "VEC4"
    }
  ],
  "animations": [
    {
      "channels": [
        {
          "sampler": 0,
          "target": {
            "node": 5,
            "path": "rotation"
          }
        }
      ],
      "name": "Cylinder|CylinderAction.001",
      "samplers": [
        {
          "input": 24,
          "interpolation": "LINEAR",
          "output": 25
        }
      ]
    }
  ],
  "asset": {
    "extras": {
      "author": "theartofmartins (https://sketchfab.com/theartofmartins)",
      "license": "CC-BY-4.0 (http://creativecommons.org/licenses/by/4.0/)",
      "source": "https://sketchfab.com/3d-models/lost-tower-low-poly-93ef2dd427fe4beda52a478014d862af",
      "title": "Lost Tower - Low Poly"
    },
    "generator": "Sketchfab-8.39.0",
    "version": "2.0"
  },
  "bufferViews": [
    {
      "buffer": 0,
      "byteLength": 21624,
      "byteOffset": 0,
      "name": "floatBufferViews",
      "target": 34963
    },
    {
      "buffer": 0,
      "byteLength": 25304,
      "byteOffset": 21624,
      "byteStride": 8,
      "name": "floatBufferViews",
      "target": 34962
    },
    {
      "buffer": 0,
      "byteLength": 75912,
      "byteOffset": 46928,
      "byteStride": 12,
      "name": "floatBufferViews",
      "target": 34962
    },
    {
      "buffer": 0,
      "byteLength": 956,
      "byteOffset": 122840,
      "name": "floatBufferViews"
    },
    {
      "buffer": 0,
      "byteLength": 3824,
      "byteOffset": 123796,
      "byteStride": 16,
      "name": "floatBufferViews"
    }
  ],
  "buffers": [
    {
      "byteLength": 127620,
      "uri": "scene.bin"
    }
  ],
  "materials": [
    {
      "doubleSided": true,
      "emissiveFactor": [
        0,
        0,
        0
      ],
      "name": "light_stone",
      "pbrMetallicRoughness": {
        "baseColorFactor": [
          0.37574800000000003,
          0.37574800000000003,
          0.37574800000000003,
          1
        ],
        "metallicFactor": 0,
        "roughnessFactor": 0.91598019295904087
      }
    },
    {
      "doubleSided": true,
      "emissiveFactor": [
        0,
        0,
        0
      ],
      "name": "tower",
      "pbrMetallicRoughness": {
        "baseColorFactor": [
          0.29569099999999998,
          0.29569099999999998,
          0.29569099999999998,
          1
        ],
        "metallicFactor": 0,
        "roughnessFactor": 1
      }
    },
    {
      "doubleSided": true,
      "emissiveFactor": [
        0,
        0,
        0
      ],
      "name": "dark_stone",
      "pbrMetallicRoughness": {
        "baseColorFactor": [
          0.114935,
          0.114935,
          0.114935,
          1
        ],
        "metallicFactor": 0,
        "roughnessFactor": 0.9742997527006062
      }
    },
    {
      "doubleSided": true,
      "emissiveFactor": [
        0,
        0,
        0
      ],
      "name": "roof",
      "pbrMetallicRoughness": {
        "baseColorFactor": [
          0.13286300000000001,
          0.038748499999999998,
          0.0337246,
          1
        ],
        "metallicFactor": 0,
        "roughnessFactor": 0.98694258902064047
      }
    },
    {
      "doubleSided": true,
      "emissiveFactor": [
        0,
        0,
        0
      ],
      "name": "dark_wood",
      "pbrMetallicRoughness": {
        "baseColorFactor": [
          0.023649199999999999,
          0.0184887,
          0.016635,
          1
        ],
        "metallicFactor": 0,
        "roughnessFactor": 0.99565040388849224
      }
    },
    {
      "doubleSided": true,
      "emissiveFactor": [
        0,
        0,
        0
      ],
      "name": "doors",
      "pbrMetallicRoughness": {
        "baseColorFactor": [
          0.12371,
          0.083133600000000002,
          0.060837200000000001,
          1
        ],
        "metallicFactor": 0,
        "roughnessFactor": 0.97984177058409472
      }
    }
  ],
  "meshes": [
    {
      "name": "Cylinder_light stone_0",
      "primitives": [
        {
          "attributes": {
            "NORMAL": 1,
            "POSITION": 0,
            "TEXCOORD_0": 2
          },
          "indices": 3,
          "material": 0,
          "mode": 4
        }
      ]
    },
    {
      "name": "Cylinder_tower_0",
      "primitives": [
        {
          "attributes": {
            "NORMAL": 5,
            "POSITION": 4,
            "TEXCOORD_0": 6
          },
          "indices": 7,
          "material": 1,
          "mode": 4
        }
      ]
    },
    {
      "name": "Cylinder_dark stone_0",
      "primitives": [
        {
          "attributes": {
            "NORMAL": 9,
            "POSITION": 8,
            "TEXCOORD_0": 10
          },
          "indices": 11,
          "material": 2,
          "mode": 4
        }
      ]
    },
    {
      "name": "Cylinder_roof_0",
      "primitives": [
        {
          "attributes": {
            "NORMAL": 13,
            "POSITION": 12,
            "TEXCOORD_0": 14
          },
          "indices": 15,
          "material": 3,
          "mode": 4
        }
      ]
    },
    {
      "name": "Cylinder_dark wood_0",
      "primitives": [
        {
          "attributes": {
            "NORMAL": 17,
            "POSITION": 16,
            "TEXCOORD_0": 18
          },
          "indices": 19,
          "material": 4,
          "mode": 4
        }
      ]
    },
    {
      "name": "Cylinder_doors_0",
      "primitives": [
        {
          "attributes": {
            "NORMAL": 21,
            "POSITION": 20,
            "TEXCOORD_0": 22
          },
          "indices": 23,
          "material": 5,
          "mode": 4
        }
      ]
    }
  ],
  "nodes": [
    {
      "children": [
        1
      ],
      "name": "RootNode (gltf orientation matrix)",
      "rotation": [
        -0.70710678118654746,
        -0,
        -0,
        0.70710678118654757
      ]
    },
    {
      "children": [
        2
      ],
      "matrix": [
        0.075614467263221741,
        0,
        0,
        0,
        0,
        0.075614467263221741,
        0,
        0,
        0,
        0,
        0.075614467263221741,
        0,
        -5.7683038711547852,
        -5.2257251739501953,
        0,
        1
      ],
      "name": "RootNode (model correction matrix)"
    },
    {
      "children": [
        3
      ],
      "matrix": [
        1,
        0,
        0,
        0,
        0,
        0,
        1,
        0,
        0,
        -1,
        0,
        0,
        0,
        0,
        0,
        1
      ],
      "name": "5df899dc5e6d4353a13fcae9302ae00b.fbx"
    },
    {
      "children": [
        4
      ],
      "name": ""
    },
    {
      "children": [
        5
      ],
      "name": "RootNode"
    },
    {
      "children": [
        6,
        7,
        8,
        9,
        10,
        11
      ],
      "name": "Cylinder",
      "rotation": [
        -0,
        0.70710676908493042,
        0,
        0.7071068286895752
      ],
      "scale": [
        9.9172353744506836,
        9.9172353744506836,
        9.9172353744506836
      ],
      "translation": [
        0,
        991.81158447265625,
        0
      ]
    },
    {
      "mesh": 0,
      "name": "Cylinder_light stone_0"
    },
    {
      "mesh": 1,
      "name": "Cylinder_tower_0"
    },
    {
      "mesh": 2,
      "name": "Cylinder_dark stone_0"
    },
    {
      "mesh": 3,
      "name": "Cylinder_roof_0"
    },
    {
      "mesh": 4,
      "name": "Cylinder_dark wood_0"
    },
    {
      "mesh": 5,
      "name": "Cylinder_doors_0"
    }
  ],
  "scene": 0,
  "scenes": [
    {
      "name": "OSG_Scene",
      "nodes": [
        0
      ]
    }
  ]
}

