<svg xmlns="http://www.w3.org/2000/svg" viewBox="0 0 512 512" xml:space="preserve"><path d="M323.84 452.267c-5.12 0-8.533 3.413-8.533 8.533 0 5.12 3.413 8.533 8.533 8.533s8.533-3.413 8.533-8.533c0-5.12-3.413-8.533-8.533-8.533z"/><path d="M372.48 129.707 264.107 38.006V8.533c0-5.12-3.413-8.533-8.533-8.533-5.12 0-8.533 3.413-8.533 8.533v30.195l-107.52 90.978c-2.56 2.56-3.413 5.973-2.56 9.387s4.267 5.973 7.68 5.973h8.533v25.6c0 5.12 3.413 8.533 8.533 8.533h8.533v230.4h-8.533c-4.267 0-7.68 3.413-8.533 7.68l-8.533 85.333c0 2.56.853 5.12 2.56 6.827.853 1.707 3.413 2.56 5.973 2.56h204.8c2.56 0 5.12-.853 5.973-2.56 1.707-1.707 2.56-4.267 2.56-6.827l-8.533-85.333c-.853-4.267-4.267-7.68-8.533-7.68h-8.533V179.2h8.533c5.12 0 8.533-3.413 8.533-8.533v-25.6h8.533c3.413 0 6.827-2.56 8.533-5.973.853-3.414 0-6.827-2.56-9.387zM255.573 53.76l87.04 74.24H167.68l87.893-74.24zm93.014 441.173H162.56l6.827-68.267h172.374l6.826 68.267zm-24.747-204.8h-17.067c-5.12 0-8.533 3.413-8.533 8.533s3.413 8.533 8.533 8.533h17.067v102.4H187.307V384h17.067c5.12 0 8.533-3.413 8.533-8.533s-3.413-8.533-8.533-8.533h-17.067V221.867h17.067c5.12 0 8.533-3.413 8.533-8.533 0-5.12-3.413-8.533-8.533-8.533h-17.067v-25.6H323.84v110.932zm17.067-128H170.241v-17.067h170.667v17.067z"/><path d="M289.707 452.267h-51.2c-5.12 0-8.533 3.413-8.533 8.533 0 5.12 3.413 8.533 8.533 8.533h51.2c5.12 0 8.533-3.413 8.533-8.533 0-5.12-3.413-8.533-8.533-8.533zM204.373 452.267h-17.067c-5.12 0-8.533 3.413-8.533 8.533 0 5.12 3.413 8.533 8.533 8.533h17.067c5.12 0 8.533-3.413 8.533-8.533.001-5.12-3.413-8.533-8.533-8.533zM238.507 281.6h34.133c5.12 0 8.533-3.413 8.533-8.533V230.4c0-14.507-11.093-25.6-25.6-25.6-14.507 0-25.6 11.093-25.6 25.6v42.667c0 5.12 3.414 8.533 8.534 8.533zm8.533-51.2c0-5.12 3.413-8.533 8.533-8.533 5.12 0 8.533 3.413 8.533 8.533v34.133H247.04V230.4zM238.507 384h34.133c5.12 0 8.533-3.413 8.533-8.533V332.8c0-14.507-11.093-25.6-25.6-25.6-14.507 0-25.6 11.093-25.6 25.6v42.667c0 5.12 3.414 8.533 8.534 8.533zm8.533-51.2c0-5.12 3.413-8.533 8.533-8.533 5.12 0 8.533 3.413 8.533 8.533v34.133H247.04V332.8z"/></svg>