<svg xmlns="http://www.w3.org/2000/svg" viewBox="0 0 280.667 280.667" xml:space="preserve"><path d="M52.544 280.667h174.424c12.169 0 22.595-7.706 26.65-18.46H25.892c4.057 10.754 14.482 18.46 26.652 18.46zM24.069 231.035h231.374v19.172H24.069zM25.078 219.035h229.357c-3.298-12.057-14.368-20.985-27.467-20.985H52.544c-13.098 0-24.17 8.929-27.466 20.985zM197.552 0H83.332L6.334 87.92h267.999v-.238zM63.06 94.662v97.54h19.491l.01-54.073H129.745a13.715 13.715 0 0 0 10.187 4.521c4.033 0 7.671-1.744 10.187-4.521h47.33v54.073h19.649v-97.54h-19.671l-.023 26.074h-46.446c-2.504-3.366-6.505-5.552-11.025-5.552-4.521 0-8.522 2.186-11.026 5.552H82.595V94.662H63.06zm76.872 26.244c4.419 0 8.011 3.592 8.011 8.011 0 4.418-3.592 8.01-8.011 8.01-4.42 0-8.012-3.592-8.012-8.01 0-4.419 3.592-8.011 8.012-8.011z"/><path d="m125.269 171.636 4.033 20.612h20.883l3.751-20.612h-11.534v1.271a2.487 2.487 0 0 1-2.483 2.48h-.022a2.487 2.487 0 0 1-2.481-2.48v-1.271h-12.147z"/><path d="M139.909 174.73a2.004 2.004 0 0 0 2.005-2.005v-24.262a2.005 2.005 0 1 0-4.011 0v24.262c0 1.107.898 2.005 2.006 2.005z"/></svg>